<mxfile host="app.diagrams.net" modified="2020-05-31T02:39:15.975Z" agent="5.0 (Macintosh; Intel Mac OS X 10_14_6) AppleWebKit/537.36 (KHTML, like Gecko) Chrome/83.0.4103.61 Safari/537.36" etag="9ltrKJ78v7LCzIe7RV6C" version="13.1.9" type="github">
  <diagram id="gQXI69-hHWr-cZGba0ls" name="flow">
    <mxGraphModel dx="1174" dy="646" grid="1" gridSize="10" guides="1" tooltips="1" connect="1" arrows="1" fold="1" page="1" pageScale="1" pageWidth="850" pageHeight="1100" math="0" shadow="0">
      <root>
        <mxCell id="0" />
        <mxCell id="1" parent="0" />
        <mxCell id="ur3HQttmQ-W_e-cBj36r-1" value="&lt;font style=&quot;font-size: 18px&quot;&gt;Download Installer&lt;/font&gt;" style="rounded=0;whiteSpace=wrap;html=1;" parent="1" vertex="1">
          <mxGeometry x="280" y="80" width="200" height="80" as="geometry" />
        </mxCell>
        <mxCell id="ur3HQttmQ-W_e-cBj36r-2" value="&lt;font style=&quot;font-size: 14px&quot;&gt;Flow when Installing Software&lt;/font&gt;" style="text;html=1;strokeColor=none;fillColor=none;align=center;verticalAlign=middle;whiteSpace=wrap;rounded=0;" parent="1" vertex="1">
          <mxGeometry x="280" y="40" width="200" height="30" as="geometry" />
        </mxCell>
        <mxCell id="08gX9jk3sD4dj2nwaR3i-1" value="&lt;font style=&quot;font-size: 18px&quot;&gt;Running Installer&lt;br&gt;&lt;/font&gt;" style="rounded=0;whiteSpace=wrap;html=1;" parent="1" vertex="1">
          <mxGeometry x="280" y="170" width="200" height="80" as="geometry" />
        </mxCell>
        <mxCell id="et5O3iPKqzA-8bhLrARb-1" value="&lt;font style=&quot;font-size: 18px&quot;&gt;When error, you&#39;ll get error message&lt;br&gt;&lt;/font&gt;" style="rounded=0;whiteSpace=wrap;html=1;fillColor=#FF9999;" vertex="1" parent="1">
          <mxGeometry x="280" y="260" width="200" height="80" as="geometry" />
        </mxCell>
        <mxCell id="et5O3iPKqzA-8bhLrARb-5" style="edgeStyle=orthogonalEdgeStyle;rounded=0;orthogonalLoop=1;jettySize=auto;html=1;exitX=1;exitY=0.5;exitDx=0;exitDy=0;entryX=0;entryY=0.5;entryDx=0;entryDy=0;" edge="1" parent="1" source="et5O3iPKqzA-8bhLrARb-2" target="et5O3iPKqzA-8bhLrARb-4">
          <mxGeometry relative="1" as="geometry" />
        </mxCell>
        <mxCell id="et5O3iPKqzA-8bhLrARb-2" value="&lt;font style=&quot;font-size: 18px&quot;&gt;Troubleshoot error issue&lt;br&gt;&lt;/font&gt;" style="rounded=0;whiteSpace=wrap;html=1;" vertex="1" parent="1">
          <mxGeometry x="280" y="350" width="200" height="80" as="geometry" />
        </mxCell>
        <mxCell id="et5O3iPKqzA-8bhLrARb-3" value="&lt;font style=&quot;font-size: 18px&quot;&gt;Re-run installer&lt;br&gt;&lt;/font&gt;" style="rounded=0;whiteSpace=wrap;html=1;" vertex="1" parent="1">
          <mxGeometry x="280" y="440" width="200" height="80" as="geometry" />
        </mxCell>
        <mxCell id="et5O3iPKqzA-8bhLrARb-6" style="edgeStyle=orthogonalEdgeStyle;rounded=0;orthogonalLoop=1;jettySize=auto;html=1;exitX=0.5;exitY=0;exitDx=0;exitDy=0;" edge="1" parent="1" source="et5O3iPKqzA-8bhLrARb-4">
          <mxGeometry relative="1" as="geometry">
            <mxPoint x="480" y="300" as="targetPoint" />
            <Array as="points">
              <mxPoint x="600" y="300" />
              <mxPoint x="480" y="300" />
            </Array>
          </mxGeometry>
        </mxCell>
        <mxCell id="et5O3iPKqzA-8bhLrARb-7" style="edgeStyle=orthogonalEdgeStyle;rounded=0;orthogonalLoop=1;jettySize=auto;html=1;exitX=0.5;exitY=1;exitDx=0;exitDy=0;entryX=1;entryY=0.5;entryDx=0;entryDy=0;" edge="1" parent="1" source="et5O3iPKqzA-8bhLrARb-4" target="et5O3iPKqzA-8bhLrARb-3">
          <mxGeometry relative="1" as="geometry" />
        </mxCell>
        <mxCell id="et5O3iPKqzA-8bhLrARb-4" value="error?" style="rhombus;whiteSpace=wrap;html=1;fillColor=#FF9999;" vertex="1" parent="1">
          <mxGeometry x="560" y="350" width="80" height="80" as="geometry" />
        </mxCell>
        <mxCell id="et5O3iPKqzA-8bhLrARb-8" value="Y" style="text;html=1;strokeColor=none;fillColor=none;align=center;verticalAlign=middle;whiteSpace=wrap;rounded=0;" vertex="1" parent="1">
          <mxGeometry x="590" y="330" width="40" height="20" as="geometry" />
        </mxCell>
        <mxCell id="et5O3iPKqzA-8bhLrARb-9" value="N" style="text;html=1;strokeColor=none;fillColor=none;align=center;verticalAlign=middle;whiteSpace=wrap;rounded=0;" vertex="1" parent="1">
          <mxGeometry x="590" y="430" width="40" height="20" as="geometry" />
        </mxCell>
        <mxCell id="et5O3iPKqzA-8bhLrARb-10" value="&lt;font style=&quot;font-size: 18px&quot;&gt;Installing Done!!!&lt;br&gt;&lt;/font&gt;" style="rounded=0;whiteSpace=wrap;html=1;" vertex="1" parent="1">
          <mxGeometry x="280" y="530" width="200" height="80" as="geometry" />
        </mxCell>
        <mxCell id="et5O3iPKqzA-8bhLrARb-12" value="" style="endArrow=classic;html=1;shadow=0;fillColor=#000000;" edge="1" parent="1">
          <mxGeometry width="50" height="50" relative="1" as="geometry">
            <mxPoint x="240" y="80" as="sourcePoint" />
            <mxPoint x="240" y="610" as="targetPoint" />
          </mxGeometry>
        </mxCell>
      </root>
    </mxGraphModel>
  </diagram>
</mxfile>
